<svg width="200" height="82" viewBox="0 0 200 82" fill="none" xmlns="http://www.w3.org/2000/svg">
<g clip-path="url(#clip0_897_1394)">
<path fill-rule="evenodd" clip-rule="evenodd" d="M0.536133 62.8757H96.2074V29.9474L120.638 9.52559L145.068 29.9474V62.8757H200.011V81.4815H0.536133V62.8757ZM120.604 0L145.034 20.4218V25.0132L120.604 4.59147L96.1732 25.0132V20.4218L120.604 0Z" fill="#4A4A4A"/>
<path d="M41.2989 36.5616V48.9312C41.2989 51.501 40.5472 53.4884 39.0779 54.9275C37.5062 56.4351 35.2511 57.189 32.2784 57.189C29.9208 57.189 27.9732 56.5722 26.4356 55.3044C24.6931 53.8653 23.8047 51.8437 23.8047 49.2053V36.5273H26.709V48.5885C26.709 49.7878 26.7773 50.6444 26.9482 51.1926C27.119 51.7409 27.4265 52.2548 27.9391 52.7688C29.1008 53.9338 30.5358 54.5163 32.3126 54.5163C33.3376 54.5163 34.2602 54.3793 35.1144 54.0709C35.9344 53.7625 36.5836 53.3856 37.0962 52.9059C37.5745 52.4262 37.9162 51.8094 38.1212 51.0556C38.3262 50.3018 38.3946 49.4451 38.3946 48.4172V36.5616H41.2989Z" fill="#787179"/>
<path d="M57.1527 37.7253V41.049C56.3326 40.2609 55.5468 39.7127 54.7267 39.4043C53.9408 39.0959 53.155 38.9246 52.3691 38.9246C51.4124 38.9246 50.6265 39.1302 50.0457 39.5756C49.4648 40.0211 49.1573 40.6036 49.1573 41.3231C49.1573 42.3511 49.909 43.3447 51.4124 44.2699C54.18 46.0174 55.6151 46.874 55.6493 46.9425C57.1868 48.2446 57.9385 49.8208 57.9385 51.6711C57.9385 53.2815 57.3918 54.6178 56.3326 55.6458C55.2734 56.6737 53.9067 57.1877 52.2324 57.1877C50.114 57.1877 48.2006 56.5709 46.5263 55.3031V51.6025C48.0639 53.5899 49.8407 54.5493 51.8908 54.5493C52.95 54.5493 53.77 54.2752 54.3509 53.7612C54.9317 53.2473 55.2051 52.6305 55.2051 51.9795C55.2051 50.8487 54.4534 49.7523 52.95 48.69C51.5491 47.7649 50.114 46.8398 48.7131 45.9146C47.1755 44.6811 46.4238 43.2762 46.4238 41.7C46.4238 40.0211 46.9705 38.6847 48.0981 37.7253C49.2256 36.7659 50.6949 36.252 52.6083 36.252C54.2142 36.252 55.7176 36.7317 57.1527 37.6911V37.7253Z" fill="#787179"/>
<path d="M78.6447 36.5605V39.1989H71.6061V56.948H68.7018V39.1989H61.6631V36.5605H78.6447Z" fill="#787179"/>
<path d="M80.7637 46.737C80.7637 43.8245 81.7546 41.3917 83.7363 39.37C85.7864 37.3142 88.4515 36.252 91.6634 36.252C94.9435 36.252 97.6086 37.2799 99.6587 39.3358C101.64 41.3231 102.597 43.7559 102.597 46.7027C102.597 49.5809 101.64 52.0137 99.6929 54.0011C97.6428 56.1255 94.9435 57.1534 91.6292 57.1534C88.3832 57.1534 85.7522 56.0912 83.7021 54.0011C81.7546 52.0137 80.7978 49.5809 80.7978 46.6684L80.7637 46.737ZM83.7705 46.737C83.7705 48.9642 84.5222 50.8145 85.9914 52.2878C87.4948 53.7612 89.3741 54.515 91.6634 54.515C93.9185 54.515 95.8319 53.7612 97.3353 52.2878C98.8387 50.8145 99.5904 48.9642 99.5904 46.737C99.5904 44.4755 98.8387 42.6252 97.3353 41.1518C95.8319 39.6784 93.9526 38.9589 91.6634 38.9589C89.4082 38.9589 87.529 39.6784 86.0256 41.1518C84.5222 42.6252 83.7705 44.4755 83.7705 46.737Z" fill="#787179"/>
<path d="M125.285 36.5625V56.95H122.346V41.0854L115.991 48.9663H115.513L109.226 41.0854L109.191 56.95H106.253V36.5625H108.986L115.752 44.9231L122.551 36.5625H125.285Z" fill="#787179"/>
<path fill-rule="evenodd" clip-rule="evenodd" d="M134.955 36.5616V56.9491H132.05V41.0846L125.729 48.9654H125.251L120.672 43.1747L122.381 41.0846L125.524 44.9565L132.289 36.5959H134.989L134.955 36.5616ZM118.964 45.2648L118.93 56.9148H116.025V48.9312L118.998 45.2306L118.964 45.2648ZM115.991 44.6138V36.5273H118.725L120.638 38.8916L115.991 44.6138Z" fill="#BCCC69"/>
<path d="M150.056 36.457L159.145 56.9473H156.172L153.473 50.951H144.828L142.266 56.9473H139.293L148.04 36.457H150.09H150.056ZM148.997 40.9457L145.956 48.3126H152.277L148.997 40.9457Z" fill="#BCCC69"/>
<path d="M161.947 56.948V36.5605H169.84C173.325 36.5605 176.093 37.657 178.075 39.85C179.817 41.7688 180.671 44.0645 180.671 46.7372C180.671 49.4783 179.715 51.8426 177.801 53.7957C175.751 55.8858 173.12 56.948 169.874 56.948H161.947ZM164.852 39.1989V54.3097H169.498C172.403 54.3097 174.59 53.3503 176.059 51.4657C177.118 50.0951 177.631 48.5189 177.631 46.7372C177.631 44.5442 176.981 42.7625 175.649 41.4261C174.18 39.9185 172.095 39.1989 169.362 39.1989H164.852Z" fill="#BCCC69"/>
<path d="M18.1326 37.9659V41.1183C15.7067 39.7134 13.3832 38.9939 11.1281 38.9939C8.80468 38.9939 6.85709 39.7477 5.31951 41.2211C3.78194 42.6944 2.99607 44.579 2.99607 46.8062C2.99607 49.1019 3.74777 50.9522 5.25118 52.3914C6.75458 53.8305 8.73634 54.55 11.1965 54.55C13.5541 54.55 15.9117 53.7962 18.3035 52.2543V55.4409C17.1759 56.0234 16.0484 56.4689 14.9208 56.7772C13.7591 57.0856 12.4607 57.2569 10.9573 57.2569C7.47212 57.2569 4.67032 56.0919 2.62022 53.7962C0.877634 51.8089 -0.0107422 49.5816 -0.0107422 47.1146C-0.0107422 43.9965 1.04848 41.4266 3.13274 39.405C5.21701 37.3834 7.88214 36.3555 11.1281 36.3555C13.1099 36.3555 15.4333 36.9037 18.0985 38.0344L18.1326 37.9659Z" fill="#787179"/>
<path d="M198.097 36.5625V39.2009H189.486V45.3343H197.789V47.9726H189.486V54.3116H198.37V56.95H186.548V36.5625H198.097Z" fill="#BCCC69"/>
<path d="M12.8709 70.0385V71.1693C12.5634 70.9637 12.29 70.8266 11.9825 70.7238C11.7092 70.621 11.4358 70.5868 11.2308 70.5868C10.9916 70.5868 10.8208 70.621 10.6841 70.7238C10.5474 70.8266 10.4791 70.9294 10.4791 71.1007C10.4791 71.2378 10.5816 71.3748 10.7866 71.5462C10.9916 71.7175 11.3333 71.9573 11.88 72.2657C12.3584 72.5741 12.7 72.8482 12.8709 73.0881C13.0759 73.3279 13.1442 73.5678 13.1442 73.8762C13.1442 74.3901 12.9734 74.7671 12.6317 75.0754C12.29 75.3838 11.8458 75.5551 11.2991 75.5551C10.9233 75.5551 10.6158 75.5209 10.3083 75.4523C10.0007 75.3838 9.69323 75.2468 9.31738 75.0412V73.8076C10.0349 74.3216 10.6499 74.5615 11.1625 74.5615C11.4016 74.5615 11.6067 74.4929 11.7433 74.3901C11.9142 74.2873 11.9825 74.116 11.9825 73.9104C11.9825 73.7048 11.5383 73.3279 10.6499 72.814C9.76157 72.3 9.31738 71.7518 9.31738 71.1693C9.31738 70.6896 9.48822 70.3126 9.82991 70.0385C10.1716 69.7644 10.6158 69.6273 11.1966 69.6273C11.7092 69.6273 12.29 69.7987 12.8709 70.1071V70.0385ZM19.2604 68.4966V69.6616H21.0713V70.6896H19.2604V73.6021C19.2604 73.9104 19.3629 74.1503 19.5337 74.2873C19.6704 74.3901 19.8412 74.4587 20.0804 74.4587C20.4904 74.4587 20.9004 74.3216 21.3446 74.0475V75.1097C20.8663 75.3496 20.4221 75.4866 19.9779 75.4866C19.397 75.4866 18.9187 75.3153 18.6112 75.0069C18.3036 74.6643 18.1328 74.2531 18.1328 73.7048V70.6896H17.1419V70.5525L19.2604 68.4966ZM30.3992 75.3838H29.2717V74.6643C29.0325 74.9041 28.7591 75.1097 28.4516 75.281C28.1441 75.4181 27.8708 75.5209 27.5633 75.5209C26.9482 75.5209 26.504 75.3153 26.1282 74.9384C25.7865 74.5272 25.5815 73.979 25.5815 73.2594V69.7301H26.709V73.3622C26.709 74.1846 27.0849 74.63 27.8708 74.63C28.3833 74.63 28.8617 74.3559 29.2375 73.8419V69.7644H30.3651V75.4523L30.3992 75.3838ZM40.4105 66.7148V75.3838H38.0188C37.1645 75.3838 36.5154 75.1097 36.0028 74.5957C35.4903 74.0475 35.2511 73.3279 35.2511 72.4028C35.2511 71.5804 35.5245 70.8951 36.037 70.3812C36.5837 69.8329 37.2329 69.5931 38.0871 69.5931C38.2921 69.5931 38.4629 69.6273 38.668 69.6273C38.8388 69.6616 39.0438 69.7301 39.283 69.7987V66.7148H40.4105ZM39.283 74.4244V70.7923C39.078 70.7238 38.9071 70.6553 38.7705 70.621C38.5996 70.5868 38.4288 70.5868 38.2579 70.5868C37.7112 70.5868 37.2671 70.7581 36.9254 71.135C36.5837 71.5119 36.4128 71.9916 36.4128 72.5741C36.4128 73.1566 36.5495 73.6021 36.7887 73.9104C37.062 74.2531 37.5404 74.4587 38.1554 74.4587H39.283V74.4244ZM46.595 69.6616V75.3496H45.4674V69.6616H46.595ZM46.6975 67.9484C46.6975 68.1197 46.6292 68.291 46.4925 68.4281C46.3558 68.5651 46.2192 68.6337 46.0141 68.6337C45.8433 68.6337 45.6725 68.5651 45.5358 68.4281C45.3991 68.291 45.3308 68.154 45.3308 67.9484C45.3308 67.7771 45.3991 67.6057 45.5358 67.4687C45.6725 67.3316 45.8091 67.2631 46.0141 67.2631C46.185 67.2631 46.3558 67.3316 46.4925 67.4687C46.6292 67.6057 46.6975 67.7428 46.6975 67.9484ZM54.3512 69.5588C55.2396 69.5588 55.9913 69.8329 56.5721 70.3812C57.153 70.9294 57.4264 71.6147 57.4264 72.4713C57.4264 73.3622 57.153 74.0818 56.5721 74.6643C55.9913 75.2125 55.2738 75.4866 54.3512 75.4866C53.497 75.4866 52.7795 75.2125 52.1986 74.63C51.6177 74.0475 51.3444 73.3279 51.3444 72.4713C51.3444 71.649 51.6177 70.9637 52.1986 70.4154C52.7795 69.8672 53.497 69.5931 54.3512 69.5931V69.5588ZM54.3512 70.5868C53.8045 70.5868 53.3945 70.7581 53.0186 71.135C52.677 71.4776 52.5061 71.9573 52.5061 72.5056C52.5061 73.1223 52.677 73.6021 53.0186 73.979C53.3603 74.3559 53.8045 74.5272 54.3512 74.5272C54.9662 74.5272 55.4104 74.3559 55.7863 73.979C56.128 73.6363 56.2988 73.1223 56.2988 72.5056C56.2988 71.9573 56.128 71.4776 55.7521 71.135C55.3763 70.7923 54.9321 70.5868 54.3512 70.5868ZM70.3761 69.6959V75.3838H69.2486V69.6959H70.3761ZM70.4786 67.9826C70.4786 68.154 70.4103 68.3253 70.2736 68.4623C70.137 68.5994 70.0003 68.6679 69.7953 68.6679C69.6244 68.6679 69.4536 68.5994 69.3169 68.4623C69.1802 68.3253 69.1119 68.1882 69.1119 67.9826C69.1119 67.8113 69.1802 67.64 69.3169 67.5029C69.4536 67.3659 69.5903 67.2973 69.7953 67.2973C69.9661 67.2973 70.137 67.3659 70.2736 67.5029C70.4103 67.64 70.4786 67.7771 70.4786 67.9826ZM76.5948 69.6959V70.4497C77.0731 69.8672 77.654 69.5931 78.3032 69.5931C78.884 69.5931 79.3282 69.7644 79.6699 70.1413C80.0458 70.5525 80.2508 71.135 80.2508 71.8888V75.4181H79.1232V71.8888C79.1232 71.4776 79.0207 71.135 78.8157 70.8951C78.6107 70.6553 78.3374 70.5182 77.9957 70.5182C77.7223 70.5182 77.5173 70.5868 77.3123 70.6896C77.1073 70.7923 76.8681 71.0322 76.5948 71.3406V75.4181H75.4672V69.7301H76.5948V69.6959ZM86.6403 68.5309V69.6959H88.4512V70.7238H86.6403V73.6363C86.6403 73.9447 86.7428 74.1846 86.9136 74.3216C87.0503 74.4244 87.2211 74.4929 87.4603 74.4929C87.8703 74.4929 88.2803 74.3559 88.7245 74.0818V75.144C88.2462 75.3838 87.802 75.5209 87.3578 75.5209C86.7769 75.5209 86.2986 75.3496 85.9911 75.0412C85.6835 74.6985 85.5127 74.2873 85.5127 73.7391V70.7238H84.5218V70.5868L86.6403 68.5309ZM97.7791 73.7734V74.8698C97.4374 75.1097 97.0616 75.281 96.7199 75.3838C96.3782 75.4866 95.9682 75.5551 95.4898 75.5551C94.6356 75.5551 93.9523 75.2468 93.4397 74.63C92.9614 74.0475 92.7222 73.3622 92.7222 72.5056C92.7222 71.649 92.9614 70.9294 93.4397 70.4154C93.9181 69.8672 94.5673 69.6273 95.3532 69.6273C96.1049 69.6273 96.7199 69.9015 97.1641 70.4154C97.6083 70.9294 97.8133 71.7175 97.8133 72.7454H93.8156C93.9864 73.8762 94.6356 74.4587 95.729 74.4587C96.0707 74.4587 96.3782 74.3901 96.7199 74.2873C97.0616 74.1846 97.3691 74.0132 97.7108 73.7734H97.7791ZM93.9181 71.9916H96.7882C96.7882 71.5804 96.6516 71.2378 96.4124 70.9637C96.1732 70.6896 95.8657 70.5868 95.4557 70.5868C94.6015 70.5868 94.0889 71.0665 93.9181 71.9916ZM102.699 69.7301H103.827V71.0322C104.408 70.0728 104.954 69.5931 105.501 69.5931C105.945 69.5931 106.39 69.7987 106.868 70.2441L106.287 71.2378C106.116 71.0665 105.911 70.9294 105.74 70.8266C105.569 70.7238 105.399 70.6896 105.228 70.6896C104.852 70.6896 104.51 70.8609 104.237 71.2035C103.964 71.5462 103.827 71.9573 103.827 72.4371V75.4181H102.699V69.7301ZM112.301 69.7301V75.4181H111.173V69.7301H112.301ZM112.403 68.0169C112.403 68.1882 112.335 68.3596 112.198 68.4966C112.061 68.6337 111.925 68.7022 111.72 68.7022C111.549 68.7022 111.378 68.6337 111.241 68.4966C111.105 68.3596 111.036 68.2225 111.036 68.0169C111.036 67.8456 111.105 67.6743 111.241 67.5372C111.378 67.4001 111.515 67.3316 111.72 67.3316C111.891 67.3316 112.061 67.4001 112.198 67.5372C112.335 67.6743 112.403 67.8113 112.403 68.0169ZM120.057 69.6273C120.945 69.6273 121.697 69.9015 122.278 70.4497C122.859 70.9979 123.132 71.6832 123.132 72.5398C123.132 73.4307 122.859 74.1503 122.278 74.7328C121.697 75.281 120.979 75.5551 120.057 75.5551C119.203 75.5551 118.485 75.281 117.904 74.6985C117.323 74.116 117.05 73.3965 117.05 72.5398C117.05 71.7175 117.323 71.0322 117.904 70.484C118.485 69.9357 119.203 69.6616 120.057 69.6616V69.6273ZM120.057 70.6553C119.51 70.6553 119.1 70.8266 118.724 71.2035C118.383 71.5462 118.212 72.0259 118.212 72.5741C118.212 73.1909 118.383 73.6706 118.724 74.0475C119.066 74.4244 119.51 74.5957 120.057 74.5957C120.672 74.5957 121.116 74.4244 121.492 74.0475C121.834 73.7048 122.004 73.1909 122.004 72.5741C122.004 72.0259 121.834 71.5462 121.458 71.2035C121.082 70.8609 120.638 70.6553 120.057 70.6553ZM127.984 69.7644H129.111V71.0665C129.692 70.1071 130.239 69.6273 130.786 69.6273C131.23 69.6273 131.674 69.8329 132.152 70.2784L131.572 71.2721C131.401 71.1007 131.196 70.9637 131.025 70.8609C130.854 70.7581 130.683 70.7238 130.512 70.7238C130.137 70.7238 129.795 70.8951 129.521 71.2378C129.248 71.5804 129.111 71.9916 129.111 72.4713V75.4523H127.984V69.7644ZM148.382 66.8176V75.4866H145.991C145.136 75.4866 144.487 75.2125 143.975 74.6985C143.462 74.1503 143.223 73.4307 143.223 72.5056C143.223 71.6832 143.496 70.9979 144.009 70.484C144.556 69.9357 145.205 69.6959 146.059 69.6959C146.264 69.6959 146.435 69.7301 146.64 69.7301C146.811 69.7644 147.016 69.8329 147.255 69.9015V66.8176H148.382ZM147.255 74.5272V70.8951C147.05 70.8266 146.879 70.7581 146.742 70.7238C146.571 70.6896 146.401 70.6896 146.23 70.6896C145.683 70.6896 145.239 70.8609 144.897 71.2378C144.556 71.6147 144.385 72.0944 144.385 72.6769C144.385 73.2594 144.521 73.7048 144.761 74.0132C145.034 74.3559 145.512 74.5615 146.127 74.5615H147.255V74.5272ZM158.189 73.8419V74.9384C157.847 75.1782 157.471 75.3496 157.129 75.4523C156.788 75.5551 156.378 75.6237 155.899 75.6237C155.045 75.6237 154.362 75.3153 153.849 74.6985C153.371 74.116 153.132 73.4307 153.132 72.5741C153.132 71.7175 153.371 70.9979 153.849 70.484C154.328 69.9357 154.977 69.6959 155.763 69.6959C156.514 69.6959 157.129 69.97 157.574 70.484C158.018 70.9979 158.223 71.786 158.223 72.814H154.225C154.396 73.9447 155.045 74.5272 156.139 74.5272C156.48 74.5272 156.788 74.4587 157.129 74.3559C157.471 74.2531 157.779 74.0818 158.12 73.8419H158.189ZM154.328 72.0601H157.198C157.198 71.649 157.061 71.3063 156.822 71.0322C156.583 70.7581 156.275 70.6553 155.865 70.6553C155.011 70.6553 154.499 71.135 154.328 72.0601ZM166.321 70.1413V71.2721C166.013 71.0665 165.74 70.9294 165.432 70.8266C165.159 70.7238 164.886 70.6896 164.681 70.6896C164.441 70.6896 164.271 70.7238 164.134 70.8266C163.997 70.9294 163.929 71.0322 163.929 71.2035C163.929 71.3406 164.031 71.4776 164.236 71.649C164.441 71.8203 164.783 72.0601 165.33 72.3685C165.808 72.6769 166.15 72.951 166.321 73.1909C166.526 73.4307 166.594 73.6706 166.594 73.979C166.594 74.4929 166.423 74.8698 166.082 75.1782C165.74 75.4866 165.296 75.6579 164.749 75.6579C164.373 75.6579 164.066 75.6237 163.758 75.5551C163.451 75.4866 163.143 75.3496 162.767 75.144V73.9104C163.485 74.4244 164.1 74.6643 164.612 74.6643C164.852 74.6643 165.057 74.5957 165.193 74.4929C165.364 74.3901 165.432 74.2188 165.432 74.0132C165.432 73.8076 164.988 73.4307 164.1 72.9168C163.211 72.4028 162.767 71.8546 162.767 71.2721C162.767 70.7923 162.938 70.4154 163.28 70.1413C163.621 69.8672 164.066 69.7301 164.646 69.7301C165.159 69.7301 165.74 69.9015 166.321 70.2098V70.1413ZM172.539 69.7987V75.4866H171.412V69.7987H172.539ZM172.642 68.0854C172.642 68.2568 172.574 68.4281 172.437 68.5651C172.3 68.7022 172.164 68.7707 171.959 68.7707C171.788 68.7707 171.617 68.7022 171.48 68.5651C171.343 68.4281 171.275 68.291 171.275 68.0854C171.275 67.9141 171.343 67.7428 171.48 67.6057C171.617 67.4687 171.753 67.4001 171.959 67.4001C172.129 67.4001 172.3 67.4687 172.437 67.6057C172.574 67.7428 172.642 67.8798 172.642 68.0854ZM182.175 69.7987V70.6896H181.047C181.252 70.8951 181.423 71.1007 181.491 71.3063C181.594 71.5119 181.628 71.7175 181.628 71.9573C181.628 72.1629 181.56 72.4028 181.457 72.6426C181.355 72.8825 181.218 73.0881 181.081 73.2251C180.842 73.4993 180.364 73.6706 179.646 73.8076C179.066 73.9104 178.758 74.0818 178.758 74.2873C178.758 74.5615 179.339 74.8013 180.501 75.0069C181.081 75.1097 181.491 75.3153 181.765 75.6237C182.004 75.8978 182.141 76.2062 182.141 76.6173C182.141 77.1998 181.901 77.6453 181.423 77.9537C180.945 78.2621 180.296 78.4334 179.441 78.4334C178.69 78.4334 178.04 78.2621 177.562 77.9537C177.084 77.6453 176.845 77.2341 176.845 76.7201C176.845 75.8978 177.323 75.3838 178.28 75.144C177.904 74.9041 177.699 74.6643 177.699 74.4244C177.699 74.2531 177.767 74.0818 177.938 73.9447C178.109 73.8076 178.314 73.7048 178.587 73.6363C178.143 73.4307 177.835 73.1566 177.63 72.8825C177.425 72.5741 177.323 72.2315 177.323 71.8203C177.323 71.2035 177.528 70.7238 177.972 70.3812C178.416 70.0385 179.031 69.8672 179.783 69.8672H182.106L182.175 69.7987ZM180.603 71.786C180.603 71.5119 180.501 71.2721 180.296 71.0665C180.091 70.8609 179.817 70.7581 179.51 70.7581C179.202 70.7581 178.929 70.8609 178.724 71.0665C178.519 71.2721 178.382 71.5119 178.382 71.786C178.382 72.0944 178.485 72.3343 178.69 72.5398C178.895 72.7454 179.168 72.814 179.51 72.814C179.817 72.814 180.091 72.7112 180.296 72.5056C180.501 72.3 180.603 72.0601 180.603 71.7175V71.786ZM181.081 76.6859C181.081 76.3775 180.842 76.1376 180.398 75.9663C180.056 75.8293 179.646 75.7607 179.202 75.7607C178.826 75.7607 178.519 75.8293 178.28 76.0006C178.04 76.1719 177.904 76.3775 177.904 76.6173C177.904 77.1998 178.416 77.5082 179.476 77.5082C179.988 77.5082 180.364 77.4397 180.637 77.3026C180.911 77.1656 181.047 76.96 181.047 76.6859H181.081ZM187.676 69.7987V70.5525C188.154 69.97 188.735 69.6959 189.384 69.6959C189.965 69.6959 190.409 69.8672 190.751 70.2441C191.127 70.6553 191.332 71.2378 191.332 71.9916V75.5209H190.204V71.9916C190.204 71.5804 190.102 71.2378 189.897 70.9979C189.692 70.7581 189.419 70.621 189.077 70.621C188.803 70.621 188.598 70.6896 188.393 70.7923C188.188 70.8951 187.949 71.135 187.676 71.4434V75.5209H186.548V69.8329H187.676V69.7987Z" fill="#949599"/>
<path fill-rule="evenodd" clip-rule="evenodd" d="M120.603 19.2559V22.5795L106.048 35.0519H102.152L120.603 19.2559Z" fill="#BCCC69"/>
<path fill-rule="evenodd" clip-rule="evenodd" d="M120.604 19.2559L139.054 35.0519H135.193L120.604 22.5795V19.2559Z" fill="#787179"/>
</g>
<defs>
<clipPath id="clip0_897_1394">
<rect width="200" height="81.4815" fill="white"/>
</clipPath>
</defs>
</svg>
