<svg width="179" height="57" fill="none" xmlns="http://www.w3.org/2000/svg"><path fill-rule="evenodd" clip-rule="evenodd" d="M86.571 56.375V26.85L108.56 8.54l21.989 18.31v29.524H86.571ZM108.56 0l21.989 18.31v4.117L108.56 4.117l-21.989 18.31V18.31L108.56 0Z" fill="#F5F6F8"/><path d="M37.181 32.78v11.091c0 2.304-.676 4.086-1.999 5.377-1.414 1.351-3.444 2.027-6.12 2.027-2.122 0-3.875-.553-5.258-1.69-1.569-1.29-2.368-3.102-2.368-5.468V32.75h2.614v10.814c0 1.075.061 1.843.215 2.335s.43.952.892 1.413c1.045 1.045 2.337 1.567 3.936 1.567.923 0 1.753-.123 2.522-.4.738-.276 1.322-.614 1.784-1.044.43-.43.738-.983.922-1.659.185-.676.246-1.444.246-2.366V32.78h2.614Zm14.269 4.025c-.738-.707-1.445-1.198-2.183-1.475-.707-.276-1.415-.43-2.122-.43-.861 0-1.568.184-2.091.584-.523.4-.8.922-.8 1.567 0 .921.677 1.812 2.03 2.642 2.491 1.567 3.783 2.335 3.813 2.396 1.384 1.168 2.06 2.58 2.06 4.24 0 1.444-.491 2.642-1.445 3.563-.953.922-2.183 1.383-3.69 1.383-1.907 0-3.629-.553-5.136-1.69v-3.318c1.384 1.782 2.983 2.642 4.828 2.642.954 0 1.692-.245 2.215-.706.523-.461.769-1.014.769-1.598 0-1.014-.677-1.997-2.03-2.949-1.261-.83-2.553-1.659-3.814-2.489-1.383-1.105-2.06-2.365-2.06-3.778 0-1.506.492-2.704 1.507-3.564 1.015-.86 2.337-1.321 4.06-1.321 1.445 0 2.798.43 4.09 1.29v3.011Zm19.344-4.025v2.366H64.46V51.06h-2.614V35.146H55.51V32.78h15.284Zm1.907 9.125c0-2.612.892-4.793 2.676-6.605 1.845-1.844 4.244-2.796 7.135-2.796 2.952 0 5.35.922 7.196 2.765 1.784 1.782 2.645 3.963 2.645 6.605 0 2.58-.861 4.762-2.614 6.544-1.846 1.905-4.275 2.826-7.258 2.826-2.922 0-5.29-.952-7.135-2.826-1.753-1.782-2.614-3.963-2.614-6.575l-.03.062Zm2.707 0c0 1.997.676 3.656 1.998 4.977 1.354 1.32 3.045 1.997 5.105 1.997 2.03 0 3.752-.676 5.106-1.997 1.353-1.321 2.03-2.98 2.03-4.977 0-2.028-.677-3.687-2.03-5.008-1.354-1.32-3.045-1.966-5.106-1.966-2.03 0-3.72.645-5.074 1.966-1.353 1.321-2.03 2.98-2.03 5.008Zm37.365-9.125v18.28h-2.645V36.836l-5.72 7.066h-.43l-5.659-7.066-.03 14.224h-2.645V32.78h2.46l6.089 7.496 6.12-7.496h2.46Z" fill="#787179"/><path fill-rule="evenodd" clip-rule="evenodd" d="M121.476 32.78v18.28h-2.614V36.836l-5.689 7.066h-.431l-4.121-5.192 1.538-1.874 2.829 3.472 6.09-7.497h2.429l-.031-.03Zm-14.392 7.804-.031 10.445h-2.614v-7.158l2.676-3.318-.031.031ZM104.408 40v-7.25h2.46l1.723 2.12-4.183 5.13Z" fill="#BCCC69"/><path d="m135.069 32.688 8.181 18.372h-2.676l-2.429-5.376h-7.781l-2.307 5.376h-2.675l7.873-18.372h1.845-.031Zm-.953 4.025-2.737 6.605h5.689l-2.952-6.605Zm11.655 14.347V32.78h7.105c3.136 0 5.627.983 7.411 2.95 1.569 1.72 2.337 3.778 2.337 6.175 0 2.457-.861 4.577-2.583 6.328-1.845 1.874-4.213 2.827-7.135 2.827h-7.135Zm2.615-15.914v13.548h4.182c2.614 0 4.582-.86 5.905-2.55.953-1.229 1.414-2.642 1.414-4.24 0-1.966-.584-3.563-1.783-4.761-1.323-1.352-3.199-1.997-5.659-1.997h-4.059Z" fill="#BCCC69"/><path d="M16.33 34.04v2.826c-2.183-1.26-4.275-1.905-6.304-1.905-2.092 0-3.845.676-5.228 1.997-1.384 1.321-2.092 3.011-2.092 5.008 0 2.058.677 3.717 2.03 5.008 1.353 1.29 3.137 1.935 5.351 1.935 2.122 0 4.244-.676 6.397-2.058v2.857a15.64 15.64 0 0 1-3.045 1.198c-1.045.276-2.214.43-3.567.43-3.137 0-5.659-1.044-7.504-3.103C.8 46.451 0 44.454 0 42.243c0-2.796.953-5.1 2.83-6.913 1.875-1.813 4.274-2.734 7.196-2.734 1.783 0 3.875.491 6.273 1.505l.031-.061Z" fill="#787179"/><path d="M178.309 32.78v2.366h-7.75v5.5h7.473v2.365h-7.473v5.683h7.996v2.366h-10.641V32.78h10.395Z" fill="#BCCC69"/><path fill-rule="evenodd" clip-rule="evenodd" d="M108.56 17.266v2.98L95.459 31.428h-3.506l16.607-14.162Z" fill="#BCCC69"/><path fill-rule="evenodd" clip-rule="evenodd" d="m108.56 17.266 16.606 14.162h-3.475L108.56 20.246v-2.98Z" fill="#787179"/></svg>