<svg width="54" height="48" fill="none" xmlns="http://www.w3.org/2000/svg"><path stroke="#fff" stroke-linecap="round" d="M.5 27.5h53M.5 37.5h53M.5 47.5h53"/><path d="M11.115 14 11.1 7.04 7.65 12.8h-.87L3.33 7.13V14H1.485V3.5H3.09l4.155 6.945 4.11-6.945h1.59l.03 10.5h-1.86Zm12.673-1.635V14h-7.875V3.5h7.665v1.635h-5.715v2.73h5.07V9.47h-5.07v2.895h5.925ZM35.292 3.5V14h-1.95V9.5h-5.43V14h-1.95V3.5h1.95v4.335h5.43V3.5h1.95Zm11.93-.15c1.03 0 1.956.235 2.776.705.83.46 1.48 1.1 1.95 1.92.47.82.705 1.745.705 2.775 0 1.03-.235 1.955-.705 2.775a5.105 5.105 0 0 1-1.95 1.935c-.82.46-1.745.69-2.775.69-.94 0-1.8-.195-2.58-.585a5.187 5.187 0 0 1-1.905-1.635 5.337 5.337 0 0 1-.915-2.385h-1.65V14h-1.92V3.5h1.92v4.305h1.68c.14-.87.455-1.64.945-2.31.5-.68 1.13-1.205 1.89-1.575.77-.38 1.615-.57 2.535-.57Zm0 9.09c.65 0 1.24-.155 1.77-.465.53-.31.946-.745 1.246-1.305.3-.56.45-1.2.45-1.92s-.15-1.36-.45-1.92c-.3-.56-.715-.995-1.245-1.305a3.44 3.44 0 0 0-1.77-.465c-.65 0-1.24.155-1.77.465-.52.31-.935.745-1.245 1.305-.3.56-.45 1.2-.45 1.92s.15 1.36.45 1.92c.31.56.725.995 1.245 1.305.53.31 1.12.465 1.77.465Z" fill="#fff"/></svg>